# Blender v2.80 (sub 75) OBJ File: ''
# www.blender.org
o Cube.002_Cube.003
v 24.151077 6.575459 -2.573669
v 25.804821 7.069505 4.035502
v 26.466864 6.911909 -1.155410
v 26.748465 4.515571 -0.614900
v 26.086424 4.673165 4.576010
v 24.432678 4.179121 -2.033160
v 23.489035 6.733057 2.617241
v 23.770636 4.336718 3.157749
v 15.326199 -16.448877 -12.816300
v 16.654305 -9.832712 -13.136588
v 19.120026 -14.703828 -18.507915
v 27.211319 -15.527970 12.388606
v 24.745598 -10.656856 17.759937
v 23.417494 -17.273018 18.080227
v 12.860476 -11.577765 -7.444971
v 20.951773 -12.401907 23.451555
v 6.814883 -3.537127 4.457949
v 8.814883 -3.537127 6.457948
v 8.814883 -3.537128 4.457949
v 8.814883 -5.537127 4.457948
v 8.814883 -5.537128 6.457947
v 6.814884 -5.537128 4.457947
v 6.814883 -3.537127 6.457949
v 6.814883 -5.537127 6.457948
v 2.666251 18.613987 -1.804240
v 4.081588 21.086821 0.846037
v 4.548752 19.475620 -1.771899
v 5.036546 17.693453 0.610526
v 4.569382 19.304651 3.228463
v 3.154043 16.831820 0.578187
v 2.199086 20.225187 0.813697
v 2.686879 18.443020 3.196122
v -23.858170 28.159740 -17.589092
v -24.386467 31.825335 41.393883
v -11.109258 28.053144 -14.556533
v -11.411247 14.976625 -13.746575
v -24.688457 18.748816 42.203838
v -24.160168 15.083220 -16.779133
v -37.135384 31.931923 38.361324
v -37.437374 18.855410 39.171284
v 17.227388 -33.296741 7.236376
v 22.201950 -33.296745 12.210938
v 22.201946 -33.296738 7.236376
v 22.201950 -38.271301 7.236377
v 22.201950 -38.271305 12.210939
v 17.227390 -38.271305 7.236374
v 17.227386 -33.296749 12.210935
v 17.227390 -38.271305 12.210936
v -0.540491 -10.117402 -9.391291
v 1.384673 -9.225203 6.129086
v 1.437928 -9.826656 -9.693843
v 1.726069 -11.711788 -4.692159
v 1.672817 -11.110335 11.130767
v -0.252347 -12.002534 -4.389611
v -0.593743 -9.515949 6.431639
v -0.305601 -11.401081 11.433320
v -19.549591 -11.819036 13.767882
v -21.218605 -9.743864 4.463883
v -19.683563 -9.850123 16.938213
v -18.408535 -9.515318 2.253087
v -19.943581 -9.409060 -10.221243
v -18.274567 -11.484231 -0.917245
v -21.084637 -11.712776 1.293551
v -19.809608 -11.377972 -13.391574
v 34.277634 22.162186 -5.147857
v 26.871571 34.633705 16.834175
v 31.536654 27.371271 63.760712
v 40.464153 32.765594 60.395927
v 35.799072 40.028030 13.469409
v 43.205132 27.556515 -8.512628
v 29.612547 29.424618 -52.074379
v 38.540047 34.818947 -55.439159
v -9.633641 -37.074600 -29.474754
v -32.358322 -32.761669 -16.881666
v -49.832237 -41.670151 26.614393
v -44.522896 -32.096184 27.134865
v -27.048986 -23.187704 -16.361177
v -4.324306 -27.500633 -28.954273
v 7.840265 -28.166124 -72.970787
v 13.149606 -18.592150 -72.450317
v -45.719543 2.134067 -19.477707
v -40.132572 3.837687 14.344493
v -39.687309 2.925078 -17.732044
v -38.956333 -3.046678 -12.598834
v -39.401592 -2.134070 19.477703
v -44.988567 -3.837688 -14.344496
v -46.164803 3.046677 12.598830
v -45.433826 -2.925080 17.732042
v -9.865887 10.600653 -0.628344
v -7.678893 9.987338 3.462919
v -9.535002 9.276738 2.920683
v -8.009777 11.311255 -0.086109
v -7.011530 8.667379 0.195169
v -9.198526 9.280693 -3.896096
v -8.867640 7.956778 -0.347068
v -7.342417 9.991296 -3.353860
v 42.515434 -15.156799 0.752386
v 44.310242 -13.235509 -1.837176
v 43.515972 -13.599005 2.630933
v 45.054825 -14.799478 3.715724
v 45.849091 -14.435982 -0.752384
v 44.054287 -16.357273 1.837175
v 43.309704 -14.793304 -3.715721
v 44.848557 -15.993779 -2.630933
v 43.749531 17.575567 3.935799
v 48.785332 17.575565 8.971600
v 48.785339 17.575571 3.935796
v 48.785339 12.539767 3.935797
v 48.785339 12.539770 8.971598
v 43.749538 12.539769 3.935797
v 43.749535 17.575567 8.971598
v 43.749535 12.539766 8.971601
v 66.411690 -15.874562 -14.926023
v 74.337326 -10.821616 30.007067
v 71.610306 -11.113831 -36.975479
v 78.848717 -16.484198 14.926023
v 76.121689 -16.776413 -52.056519
v 70.923073 -21.537149 -30.007059
v 73.650101 -21.244934 36.975479
v -38.932877 57.280308 -18.626305
v -32.865002 60.118938 18.636827
v -32.400070 59.131306 -17.650038
v -30.599361 52.671070 -11.822787
v -31.064293 53.658699 24.464067
v -37.132164 50.820072 -12.799064
v -39.397812 58.267941 17.660553
v -37.597099 51.807705 23.487797
v 69.138718 -15.582347 52.056530
vt 0.631067 0.808287
vt 0.614440 0.850137
vt 0.614440 0.815661
vt 0.884653 0.929623
vt 0.868467 0.897936
vt 0.884653 0.895077
vt 0.943920 0.899074
vt 0.928077 0.857773
vt 0.943920 0.864675
vt 0.859269 0.899470
vt 0.843083 0.931156
vt 0.843083 0.896610
vt 0.140863 0.910489
vt 0.156958 0.926468
vt 0.140863 0.926496
vt 0.124767 0.926468
vt 0.140863 0.910489
vt 0.140863 0.926496
vt 0.295507 0.932126
vt 0.338518 0.938737
vt 0.302200 0.972649
vt 0.345211 0.938737
vt 0.374837 0.774625
vt 0.381529 0.972649
vt 0.338518 0.740713
vt 0.381529 0.734102
vt 0.302200 0.734102
vt 0.331826 0.898214
vt 0.813524 0.966733
vt 0.781428 0.788779
vt 0.813524 0.757010
vt 0.416571 0.730286
vt 0.381529 0.911024
vt 0.381529 0.700190
vt 0.602963 0.930339
vt 0.616222 0.917104
vt 0.616222 0.930302
vt 0.712243 0.914334
vt 0.698974 0.927421
vt 0.698974 0.914248
vt 0.629345 0.930254
vt 0.616222 0.917312
vt 0.629345 0.917104
vt 0.170227 0.923634
vt 0.156958 0.910546
vt 0.170227 0.910461
vt 0.595565 0.930305
vt 0.582256 0.917117
vt 0.595565 0.917104
vt 0.568947 0.930305
vt 0.582256 0.917117
vt 0.582256 0.930317
vt 0.700963 0.914248
vt 0.712051 0.897164
vt 0.714040 0.914145
vt 0.893248 0.912463
vt 0.911717 0.926179
vt 0.893248 0.932976
vt 0.916840 0.900132
vt 0.923062 0.916034
vt 0.911717 0.916405
vt 0.778055 0.914401
vt 0.759587 0.928117
vt 0.759587 0.907604
vt 0.928184 0.932736
vt 0.916840 0.933107
vt 0.714040 0.881118
vt 0.698974 0.897267
vt 0.700963 0.881221
vt 0.781428 0.378919
vt 0.868309 0.000000
vt 0.868309 0.377885
vt 0.868467 0.757010
vt 0.781428 0.378919
vt 0.868467 0.379879
vt 0.954319 0.756998
vt 0.868467 0.380686
vt 0.954319 0.378919
vt 0.868309 0.378091
vt 0.955348 0.000000
vt 0.955348 0.377132
vt 0.086009 0.961440
vt 0.000000 0.875729
vt 0.086009 0.875024
vt 0.086009 0.788608
vt 0.000000 0.874320
vt 0.000000 0.787904
vt 0.929293 0.791631
vt 0.896315 0.824549
vt 0.896315 0.791722
vt 0.602963 0.916892
vt 0.635967 0.884340
vt 0.635967 0.917104
vt 0.928954 0.857256
vt 0.896315 0.825067
vt 0.928954 0.824549
vt 0.601952 0.916892
vt 0.568948 0.884339
vt 0.601952 0.884127
vt 0.124459 0.919862
vt 0.091357 0.887059
vt 0.124459 0.887028
vt 0.896315 0.791599
vt 0.929417 0.758797
vt 0.929417 0.791631
vt 0.843524 0.894662
vt 0.856410 0.792305
vt 0.856851 0.896610
vt 0.882391 0.862818
vt 0.868467 0.791024
vt 0.882391 0.758765
vt 0.830394 0.759099
vt 0.839732 0.860650
vt 0.827043 0.862739
vt 0.882391 0.862818
vt 0.896315 0.791024
vt 0.896315 0.895077
vt 0.843083 0.894683
vt 0.830394 0.896772
vt 0.856851 0.758958
vt 0.843083 0.790357
vt 0.843524 0.757010
vt 0.827043 0.935348
vt 0.813534 0.955956
vt 0.813524 0.874946
vt 0.759587 0.768295
vt 0.777000 0.687138
vt 0.777000 0.784459
vt 0.712493 0.702780
vt 0.712482 0.783791
vt 0.698974 0.763182
vt 0.478240 0.837385
vt 0.478240 0.934585
vt 0.461358 0.853758
vt 0.712493 0.881118
vt 0.698984 0.860509
vt 0.813534 0.777619
vt 0.827043 0.757010
vt 0.827033 0.854337
vt 0.494642 0.300879
vt 0.494642 0.756558
vt 0.420337 0.455679
vt 0.085722 0.311376
vt 0.107002 0.000000
vt 0.170260 0.022075
vt 0.568947 0.455679
vt 0.494642 0.756558
vt 0.494642 0.300879
vt 0.000000 0.474936
vt 0.052750 0.449761
vt 0.085722 0.762729
vt 0.032971 0.025175
vt 0.085722 0.000000
vt 0.148980 0.333451
vt 0.170260 0.786939
vt 0.107002 0.764863
vt 0.250691 0.300232
vt 0.250690 0.754731
vt 0.170260 0.454498
vt 0.396513 0.399549
vt 0.420337 0.700190
vt 0.359337 0.694310
vt 0.640301 0.456481
vt 0.568947 0.760969
vt 0.568948 0.304488
vt 0.311690 0.300642
vt 0.250691 0.306522
vt 0.274514 0.005881
vt 0.335514 0.694310
vt 0.274514 0.700190
vt 0.335514 0.393668
vt 0.359337 0.000000
vt 0.420337 0.005881
vt 0.528180 0.756558
vt 0.487518 0.979125
vt 0.487518 0.767613
vt 0.420337 0.788899
vt 0.461358 0.967659
vt 0.420337 1.000000
vt 0.211281 0.754731
vt 0.250122 0.974847
vt 0.211281 0.965179
vt 0.211281 0.787072
vt 0.170260 0.965832
vt 0.170260 0.754731
vt 0.165662 0.834336
vt 0.124767 0.876827
vt 0.124767 0.836090
vt 0.568947 0.808366
vt 0.609843 0.850858
vt 0.568947 0.849104
vt 0.896315 0.884203
vt 0.898762 0.860634
vt 0.911717 0.857773
vt 0.928077 0.874955
vt 0.928077 0.899760
vt 0.911717 0.882579
vt 0.614440 0.782016
vt 0.625916 0.784425
vt 0.630818 0.808287
vt 0.759587 0.882798
vt 0.775946 0.865617
vt 0.775946 0.890423
vt 0.619342 0.760969
vt 0.630818 0.763378
vt 0.909270 0.881343
vt 0.911717 0.902805
vt 0.898762 0.905666
vt 0.867540 0.827851
vt 0.856851 0.838799
vt 0.856851 0.808852
vt 0.867423 0.838799
vt 0.867423 0.868834
vt 0.856851 0.874422
vt 0.867540 0.767958
vt 0.867540 0.797904
vt 0.856851 0.786957
vt 0.839627 0.932596
vt 0.827043 0.926819
vt 0.827043 0.896772
vt 0.940759 0.913599
vt 0.940759 0.926863
vt 0.928184 0.926576
vt 0.928184 0.900047
vt 0.940759 0.899760
vt 0.940759 0.913025
vt 0.091357 0.887028
vt 0.124741 0.853704
vt 0.124741 0.886935
vt 0.091357 0.853489
vt 0.124767 0.820536
vt 0.124767 0.853704
vt 0.157809 0.909937
vt 0.124767 0.877352
vt 0.157809 0.876827
vt 0.124767 0.820107
vt 0.091357 0.787153
vt 0.124767 0.786939
vt 0.568948 0.850889
vt 0.602457 0.884096
vt 0.568947 0.884127
vt 0.635967 0.850889
vt 0.602457 0.884096
vt 0.602457 0.850858
vt 0.954319 0.821299
vt 0.998096 0.523513
vt 0.998096 0.965893
vt 0.736837 0.587445
vt 0.759361 0.249295
vt 0.781428 0.687138
vt 0.640301 0.241888
vt 0.674711 0.535122
vt 0.640301 0.682172
vt 0.674711 0.094837
vt 0.714770 0.440284
vt 0.698974 0.833362
vt 0.640301 0.774434
vt 0.698974 0.682172
vt 0.714770 0.149602
vt 0.781428 0.099693
vt 1.000000 0.000000
vt 0.955348 0.245079
vt 0.955348 0.005797
vt 0.714770 0.723330
vt 0.759587 0.925915
vt 0.714770 0.962108
vt 0.528180 0.756558
vt 0.568947 0.998602
vt 0.528180 0.994646
vt 0.250691 0.938968
vt 0.295507 0.736383
vt 0.295507 0.975161
vt 0.170260 0.834336
vt 0.124767 0.786939
vt 0.170260 0.788837
vt 0.614440 0.760969
vt 0.568947 0.808366
vt 0.568947 0.762867
vt 0.631067 0.842763
vt 0.868467 0.932482
vt 0.928077 0.892173
vt 0.859269 0.934016
vt 0.156958 0.910461
vt 0.124767 0.910461
vt 0.345211 0.700190
vt 0.338518 0.700190
vt 0.781428 0.998503
vt 0.416571 0.941119
vt 0.602963 0.917141
vt 0.712243 0.927506
vt 0.616222 0.930462
vt 0.156958 0.923719
vt 0.582256 0.930317
vt 0.568947 0.917104
vt 0.911717 0.905666
vt 0.928184 0.899760
vt 0.778055 0.934914
vt 0.781428 0.001033
vt 0.781428 0.756051
vt 0.868467 0.758765
vt 0.868309 0.000960
vt 0.000000 0.962145
vt 0.086009 0.875024
vt 0.929293 0.824457
vt 0.602963 0.884127
vt 0.896315 0.857773
vt 0.568947 0.917104
vt 0.091357 0.919893
vt 0.896315 0.758765
vt 0.868467 0.895077
vt 0.843083 0.757010
vt 0.882391 0.758765
vt 0.759587 0.865617
vt 0.698984 0.682172
vt 0.461358 0.756558
vt 0.420337 0.000000
vt 0.568947 0.000000
vt 0.032971 0.787904
vt 0.170260 0.000000
vt 0.640301 0.000000
vt 0.335514 0.000000
vt 0.528180 0.968071
vt 0.461358 0.756558
vt 0.250122 0.764399
vt 0.211281 0.998172
vt 0.165662 0.875074
vt 0.609843 0.810120
vt 0.911717 0.857773
vt 0.619342 0.805878
vt 0.759587 0.907604
vt 0.867540 0.797904
vt 0.856851 0.844386
vt 0.856851 0.757010
vt 0.839627 0.902549
vt 0.928184 0.913312
vt 0.928184 0.913312
vt 0.091357 0.853797
vt 0.091357 0.820321
vt 0.124767 0.910461
vt 0.091357 0.820321
vt 0.602457 0.850858
vt 0.635967 0.884127
vt 0.954319 0.378919
vt 0.714770 0.000000
vt 0.640301 0.925624
vt 0.736837 0.000000
vt 1.000000 0.239281
vt 0.759587 0.687138
vt 0.568948 0.760514
vt 0.250691 0.700190
vt 0.124767 0.832438
vt 0.614440 0.806468
vn -0.1166 0.9922 -0.0450
vn 0.9823 0.1427 0.1210
vn 0.1166 -0.9922 0.0450
vn -0.9823 -0.1427 -0.1210
vn 0.5314 -0.1265 -0.8376
vn -0.5314 0.1265 0.8376
vn -0.8432 0.1442 -0.5179
vn 0.7774 0.6004 -0.1876
vn 0.8432 -0.1442 0.5179
vn -0.7774 -0.6004 0.1876
vn 0.2872 -0.9526 -0.1006
vn -0.2872 0.9526 0.1006
vn 0.0000 1.0000 -0.0000
vn 1.0000 -0.0000 0.0000
vn -0.0000 -1.0000 -0.0000
vn -1.0000 -0.0000 -0.0000
vn 0.0000 0.0000 -1.0000
vn 0.0000 -0.0000 1.0000
vn -0.3437 0.7711 -0.5359
vn 0.9627 0.2706 0.0053
vn 0.3437 -0.7711 0.5359
vn -0.9627 -0.2706 -0.0053
vn 0.3393 -0.7186 -0.6070
vn -0.3393 0.7186 0.6070
vn 0.0230 0.9978 -0.0618
vn 0.9728 -0.0081 0.2314
vn -0.0230 -0.9978 0.0618
vn -0.9728 0.0081 -0.2314
vn 0.2304 -0.0655 -0.9709
vn -0.2304 0.0655 0.9709
vn -0.1510 0.9878 -0.0381
vn 0.9894 0.1454 -0.0022
vn 0.1510 -0.9878 0.0381
vn -0.9894 -0.1454 0.0022
vn 0.0824 -0.9310 -0.3556
vn -0.0824 0.9310 0.3556
vn -0.9607 -0.2523 0.1161
vn -0.0679 0.9976 0.0168
vn 0.9607 0.2523 -0.1161
vn 0.0679 -0.9976 -0.0168
vn 0.0679 -0.9976 -0.0169
vn 0.9940 -0.0688 0.0847
vn -0.9940 0.0688 -0.0847
vn -0.8559 -0.5172 0.0050
vn -0.4580 0.8705 0.1802
vn 0.8559 0.5172 -0.0050
vn 0.4580 -0.8705 -0.1802
vn 0.5385 -0.8383 0.0848
vn -0.5385 0.8383 -0.0848
vn -0.3444 -0.8829 -0.3192
vn -0.8433 0.4807 -0.2403
vn 0.3444 0.8829 0.3192
vn 0.8433 -0.4807 0.2403
vn 0.7462 -0.4409 0.4987
vn -0.7462 0.4409 -0.4987
vn -0.1214 0.9921 -0.0299
vn 0.9915 0.1300 0.0101
vn 0.1214 -0.9921 0.0299
vn -0.9915 -0.1300 -0.0101
vn 0.2938 -0.6022 -0.7424
vn -0.2938 0.6022 0.7424
vn -0.4225 0.8356 0.3511
vn 0.9329 0.3572 0.0463
vn 0.4225 -0.8356 -0.3511
vn -0.9329 -0.3572 -0.0463
vn 0.2218 -0.8875 0.4038
vn -0.2218 0.8875 -0.4038
vn -0.7853 0.6126 -0.0898
vn 0.5332 0.8302 0.1623
vn 0.7853 -0.6126 0.0898
vn -0.5332 -0.8302 -0.1623
vn -0.6999 -0.3203 0.6384
vn 0.6999 0.3203 -0.6384
vn -0.6230 0.7819 0.0220
vn 0.7371 0.6750 -0.0330
vn 0.6230 -0.7819 -0.0220
vn -0.7371 -0.6750 0.0330
vn -0.9629 -0.1032 -0.2493
vn 0.9629 0.1032 0.2493
vn -0.2684 0.9629 -0.0296
vn 0.9621 0.2726 0.0049
vn 0.2684 -0.9629 0.0296
vn -0.9621 -0.2726 -0.0049
vn 0.2816 -0.5982 -0.7502
vn -0.2816 0.5982 0.7502
s 1
f 1/1/1 2/2/1 3/3/1
f 2/4/2 4/5/2 3/6/2
f 5/7/3 6/8/3 4/9/3
f 6/10/4 7/11/4 1/12/4
f 4/13/5 1/14/5 3/15/5
f 5/16/6 7/17/6 8/18/6
f 9/19/7 10/20/7 11/21/7
f 10/22/8 12/23/8 11/24/8
f 13/25/9 14/26/9 12/23/9
f 14/27/10 15/28/10 9/19/10
f 12/29/11 9/30/11 11/31/11
f 13/32/12 15/33/12 16/34/12
f 17/35/13 18/36/13 19/37/13
f 18/38/14 20/39/14 19/40/14
f 21/41/15 22/42/15 20/43/15
f 22/44/16 23/45/16 17/46/16
f 20/47/17 17/48/17 19/49/17
f 21/50/18 23/51/18 24/52/18
f 25/53/19 26/54/19 27/55/19
f 26/56/20 28/57/20 27/58/20
f 29/59/21 30/60/21 28/61/21
f 30/62/22 31/63/22 25/64/22
f 28/61/23 25/65/23 27/66/23
f 29/67/24 31/68/24 32/69/24
f 33/70/25 34/71/25 35/72/25
f 34/73/26 36/74/26 35/75/26
f 37/76/27 38/77/27 36/78/27
f 38/79/28 39/80/28 33/81/28
f 36/82/29 33/83/29 35/84/29
f 37/85/30 39/86/30 40/87/30
f 41/88/13 42/89/13 43/90/13
f 42/91/14 44/92/14 43/93/14
f 45/94/15 46/95/15 44/96/15
f 46/97/16 47/98/16 41/99/16
f 44/100/17 41/101/17 43/102/17
f 45/103/18 47/104/18 48/105/18
f 49/106/31 50/107/31 51/108/31
f 50/109/32 52/110/32 51/111/32
f 53/112/33 54/113/33 52/114/33
f 54/115/34 55/116/34 49/117/34
f 52/114/35 49/118/35 51/119/35
f 53/120/36 55/121/36 56/122/36
f 57/123/37 59/124/37 58/125/37
f 58/126/38 59/127/38 60/128/38
f 61/129/39 60/130/39 62/131/39
f 62/132/40 57/133/41 63/134/40
f 60/130/42 59/135/42 57/136/42
f 61/137/43 64/138/43 63/139/43
f 65/140/44 67/141/44 66/142/44
f 66/143/45 67/144/45 68/145/45
f 69/146/46 68/147/46 70/148/46
f 70/149/47 65/150/47 71/151/47
f 68/152/48 67/153/48 65/150/48
f 69/154/49 72/155/49 71/156/49
f 73/157/50 75/158/50 74/159/50
f 74/160/51 75/161/51 76/162/51
f 77/163/52 76/164/52 78/165/52
f 78/166/53 73/167/53 79/168/53
f 76/169/54 75/170/54 73/167/54
f 77/171/55 80/172/55 79/173/55
f 81/174/56 82/175/56 83/176/56
f 82/177/57 84/178/57 83/179/57
f 85/180/58 86/181/58 84/182/58
f 86/183/59 87/184/59 81/185/59
f 84/186/60 81/187/60 83/188/60
f 85/189/61 87/190/61 88/191/61
f 89/192/62 91/193/62 90/194/62
f 92/195/63 90/196/63 93/197/63
f 93/198/64 95/199/64 94/200/64
f 95/201/65 91/202/65 89/203/65
f 90/204/66 91/205/66 95/199/66
f 92/206/67 96/207/67 94/208/67
f 97/209/68 99/210/68 98/211/68
f 98/212/69 99/213/69 100/214/69
f 101/215/70 100/216/70 102/217/70
f 102/218/71 97/219/71 103/220/71
f 100/221/72 99/222/72 97/223/72
f 101/224/73 104/225/73 103/226/73
f 105/227/13 106/228/13 107/229/13
f 106/230/14 108/231/14 107/232/14
f 109/233/15 110/234/15 108/235/15
f 110/236/16 111/237/16 105/238/16
f 108/239/17 105/240/17 107/241/17
f 109/242/18 111/243/18 112/244/18
f 113/245/74 114/246/74 115/247/74
f 115/248/75 116/249/75 117/250/75
f 116/251/76 118/252/76 117/253/76
f 119/254/77 113/255/77 118/252/77
f 115/256/78 118/257/78 113/258/78
f 114/259/79 119/260/79 116/249/79
f 120/261/80 121/262/80 122/263/80
f 121/264/81 123/265/81 122/266/81
f 124/267/82 125/268/82 123/269/82
f 125/270/83 126/271/83 120/272/83
f 123/273/84 120/274/84 122/275/84
f 124/276/85 126/277/85 127/278/85
f 1/1/1 7/279/1 2/2/1
f 2/4/2 5/280/2 4/5/2
f 5/7/3 8/281/3 6/8/3
f 6/10/4 8/282/4 7/11/4
f 4/13/5 6/283/5 1/14/5
f 5/16/6 2/284/6 7/17/6
f 9/19/7 15/28/7 10/20/7
f 10/22/8 13/25/8 12/23/8
f 13/25/9 16/285/9 14/26/9
f 14/27/10 16/286/10 15/28/10
f 12/29/11 14/287/11 9/30/11
f 13/32/12 10/288/12 15/33/12
f 17/35/13 23/289/13 18/36/13
f 18/38/14 21/290/14 20/39/14
f 21/41/15 24/291/15 22/42/15
f 22/44/16 24/292/16 23/45/16
f 20/47/17 22/293/17 17/48/17
f 21/50/18 18/294/18 23/51/18
f 25/53/19 31/68/19 26/54/19
f 26/56/20 29/295/20 28/57/20
f 29/59/21 32/296/21 30/60/21
f 30/62/22 32/297/22 31/63/22
f 28/61/23 30/60/23 25/65/23
f 29/67/24 26/54/24 31/68/24
f 33/70/25 39/298/25 34/71/25
f 34/73/26 37/299/26 36/74/26
f 37/76/27 40/300/27 38/77/27
f 38/79/28 40/301/28 39/80/28
f 36/82/29 38/302/29 33/83/29
f 37/85/30 34/303/30 39/86/30
f 41/88/13 47/304/13 42/89/13
f 42/91/14 45/305/14 44/92/14
f 45/94/15 48/306/15 46/95/15
f 46/97/16 48/307/16 47/98/16
f 44/100/17 46/308/17 41/101/17
f 45/103/18 42/309/18 47/104/18
f 49/106/31 55/121/31 50/107/31
f 50/109/32 53/310/32 52/110/32
f 53/112/33 56/311/33 54/113/33
f 54/115/34 56/312/34 55/116/34
f 52/114/35 54/113/35 49/118/35
f 53/120/36 50/107/36 55/121/36
f 57/123/37 58/125/37 63/139/37
f 58/126/38 60/128/38 61/313/38
f 61/129/39 62/131/39 64/314/39
f 62/132/40 63/134/40 64/315/40
f 60/130/42 57/136/42 62/131/42
f 61/137/43 63/139/43 58/125/43
f 65/140/44 66/142/44 71/316/44
f 66/143/45 68/145/45 69/154/45
f 69/146/46 70/148/46 72/317/46
f 70/149/47 71/151/47 72/318/47
f 68/152/48 65/150/48 70/149/48
f 69/154/49 71/156/49 66/143/49
f 73/157/50 74/159/50 79/319/50
f 74/160/51 76/162/51 77/171/51
f 77/163/52 78/165/52 80/320/52
f 78/166/53 79/168/53 80/321/53
f 76/169/54 73/167/54 78/166/54
f 77/171/55 79/173/55 74/160/55
f 81/174/56 87/322/56 82/175/56
f 82/177/57 85/323/57 84/178/57
f 85/180/58 88/324/58 86/181/58
f 86/183/59 88/325/59 87/184/59
f 84/186/60 86/326/60 81/187/60
f 85/189/61 82/327/61 87/190/61
f 89/192/62 90/194/62 92/206/62
f 92/195/63 93/197/63 96/328/63
f 93/198/64 94/200/64 96/329/64
f 95/201/65 89/203/65 94/330/65
f 90/204/66 95/199/66 93/198/66
f 92/206/67 94/208/67 89/192/67
f 97/209/68 98/211/68 103/331/68
f 98/212/69 100/214/69 101/332/69
f 101/215/70 102/217/70 104/333/70
f 102/218/71 103/220/71 104/334/71
f 100/221/72 97/223/72 102/335/72
f 101/224/73 103/226/73 98/336/73
f 105/227/13 111/337/13 106/228/13
f 106/230/14 109/338/14 108/231/14
f 109/233/15 112/339/15 110/234/15
f 110/236/16 112/340/16 111/237/16
f 108/239/17 110/341/17 105/240/17
f 109/242/18 106/342/18 111/243/18
f 113/245/74 128/343/74 114/246/74
f 115/248/75 114/259/75 116/249/75
f 116/251/76 119/254/76 118/252/76
f 119/254/77 128/344/77 113/255/77
f 115/256/78 117/345/78 118/257/78
f 114/259/79 128/346/79 119/260/79
f 120/261/80 126/347/80 121/262/80
f 121/264/81 124/348/81 123/265/81
f 124/267/82 127/349/82 125/268/82
f 125/270/83 127/350/83 126/271/83
f 123/273/84 125/351/84 120/274/84
f 124/276/85 121/352/85 126/277/85
